/* XPM */
static char * arrayBlend_xpm[] = {
"33 33 143 2",
"  	c #000000",
". 	c #C27317",
"+ 	c #0064D9",
"@ 	c #CBFB01",
"# 	c #E9FB01",
"$ 	c #94FA01",
"% 	c #21C008",
"& 	c #28CCD6",
"* 	c #20A2AB",
"= 	c #D3FF00",
"- 	c #EBFF00",
"; 	c #A9FF00",
"> 	c #26B50A",
", 	c #915611",
"' 	c #004BA3",
") 	c #29CFD6",
"! 	c #1F9AA0",
"~ 	c #48FF00",
"{ 	c #5CFF00",
"] 	c #29E703",
"^ 	c #098F10",
"/ 	c #065F0B",
"( 	c #404040",
"_ 	c #202020",
": 	c #303030",
"< 	c #1E969B",
"[ 	c #26BEC5",
"} 	c #197C80",
"| 	c #00E504",
"1 	c #00C108",
"2 	c #008F0F",
"3 	c #026D14",
"4 	c #011B05",
"5 	c #BFBFBF",
"6 	c #EFEFEF",
"7 	c #101010",
"8 	c #AFAFAF",
"9 	c #0C3A3C",
"0 	c #1F9BA1",
"a 	c #177377",
"b 	c #12595C",
"c 	c #25B9C0",
"d 	c #BA8C13",
"e 	c #C08A13",
"f 	c #B18813",
"g 	c #A07F15",
"h 	c #6A540E",
"i 	c #FFFFFF",
"j 	c #8F8F8F",
"k 	c #06569C",
"l 	c #0775D5",
"m 	c #0775D4",
"n 	c #066ECD",
"o 	c #0877D7",
"p 	c #CEF202",
"q 	c #ECF202",
"r 	c #99F202",
"s 	c #2ABE08",
"t 	c #502F09",
"u 	c #7F7F7F",
"v 	c #505050",
"w 	c #002959",
"x 	c #25C5D6",
"y 	c #1E9FAF",
"z 	c #D6FF00",
"A 	c #EDFF00",
"B 	c #ACFF00",
"C 	c #27B60A",
"D 	c #B16915",
"E 	c #DFDFDF",
"F 	c #005BC6",
"G 	c #4FFF00",
"H 	c #65FF00",
"I 	c #2EEA03",
"J 	c #0A910F",
"K 	c #707070",
"L 	c #26BFC6",
"M 	c #197D81",
"N 	c #00E603",
"O 	c #00C308",
"P 	c #00900F",
"Q 	c #026D15",
"R 	c #CFCFCF",
"S 	c #25BAC1",
"T 	c #1F9DA3",
"U 	c #177579",
"V 	c #B88E12",
"W 	c #BE8B13",
"X 	c #AF8913",
"Y 	c #9E7F15",
"Z 	c #5C370B",
"` 	c #606060",
" .	c #0878D7",
"..	c #0877D5",
"+.	c #0775D3",
"@.	c #066ECC",
"#.	c #CDEC03",
"$.	c #EBEC03",
"%.	c #9AEC03",
"&.	c #31BA09",
"*.	c #2DAA08",
"=.	c #18808E",
"-.	c #24C1D6",
";.	c #1D9CB1",
">.	c #D8FF00",
",.	c #EFFF00",
"'.	c #AEFF00",
").	c #28B70A",
"!.	c #104B04",
"~.	c #0A3436",
"{.	c #55FF00",
"].	c #6CFF00",
"^.	c #33EB02",
"/.	c #0B920F",
"(.	c #2DCE02",
"_.	c #9F9F9F",
":.	c #1C8E93",
"<.	c #197E83",
"[.	c #00EA03",
"}.	c #00CD07",
"|.	c #009D0D",
"1.	c #037414",
"2.	c #013008",
"3.	c #104E51",
"4.	c #21A5AB",
"5.	c #136063",
"6.	c #0057BE",
"7.	c #3D6700",
"8.	c #23B2BB",
"9.	c #15686B",
"0.	c #115F01",
"a.	c #1F9BA0",
"b.	c #00830E",
"c.	c #01370A",
"d.	c #613A0C",
"e.	c #00326D",
"f.	c #1C8B90",
"g.	c #493808",
"h.	c #0558A0",
"i.	c #13636B",
"j.	c #476900",
"k.	c #24B5BB",
"l.	c #076D0B",
"                                                                  ",
"                                                                  ",
"                                                                  ",
"      . . . . . . . . . . .           + + + + + + + + + + +       ",
"      . @ # $ % . @ # $ % .           + & & & * + & & & * +       ",
"      . = - ; > . = - ; > ,           ' ) ) ) ! + ) ) ) ! +       ",
"      . ~ { ] ^ . ~ { ] / ( _       : ( < ) [ } + ) ) [ } +       ",
"      . | 1 2 3 . | 1 2 4 5 6 7   7 6 8 9 0 a b + c 0 a b +       ",
"      . d e f g . d e f h _ i j   j i _ k l m n + o l m n +       ",
"      . p q r s . p q r s t u i v i u w x x x y + x x x y +       ",
"      . z A B C . z A B C D 7 E i 6 7 F ) ) ) 0 + ) ) ) 0 +       ",
"      . G H I J . G H I J .   K i j   + ) ) L M + ) ) L M +       ",
"      . N O P Q . N O P Q .   R i E 7 F S T U b + S T U b +       ",
"      . V W X Y . V W X Y Z ` i K i u w  ...+.@.+  ...+.@.+       ",
"      . #.$.%.&.. #.$.%.*.7 6 5   j i _ =.-.-.;.+ -.-.-.;.+       ",
"      . >.,.'.).. >.,.'.!.u i :   7 6 5 ~.) ) 0 + ) ) ) 0 +       ",
"      . {.].^./.. {.].(._ i _.      ` i v :.L <.+ ) ) L <.+       ",
"      . [.}.|.1.. [.}.|.2.              3.4.<.5.+ [ 4.<.5.+       ",
"      . . . . . . . . . , ,           ' 6.+ + + + + + + + +       ",
"      . @ # $ % . @ # 7.( ( ( ( ( ( ( ( _ 8.& * + & & & * +       ",
"      . = - ; > . = -   i i i i i i i i u 9.) ! + ) ) ) ! +       ",
"      . ~ { ] ^ . ~ { 0.u u u u u u u u ( a.[ } + ) ) [ } +       ",
"      . | 1 2 3 . | 1 b.c.d.          e.f.0 a b + c 0 a b +       ",
"      . d e f g . d e g.u u u u u u u u ( h.m n + o l m n +       ",
"      . p q r s . p q   i i i i i i i i u i.x y + x x x y +       ",
"      . z A B C . z A j.( ( ( ( ( ( ( ( _ k.) 0 + ) ) ) 0 +       ",
"      . G H I J . G H I l.,           ' k.) L M + ) ) L M +       ",
"      . N O P Q . N O P Q .           + S T U b + S T U b +       ",
"      . . . . . . . . . . .           + + + + + + + + + + +       ",
"                                                                  ",
"                                                                  ",
"                                                                  ",
"                                                                  "};
